<svg width="392" height="183.833" xmlns="http://www.w3.org/2000/svg"><defs><clipPath id="a"><path fill="#0023c9" d="M0 0h392v183.833H0Z"/></clipPath></defs><g clip-path="url(#a)" fill="#0023c9" style="fill:#fff;fill-opacity:1"><path d="M124.065 88.105c-15.855 0-29.82-6.227-29.82-22.916 0-16.9 14.241-22.916 29.82-22.916 15.905 0 29.627 6.228 29.627 22.915 0 17.231-14.561 22.917-29.627 22.917m0-36.956c-12.362 0-18.309 5.471-18.31 14.038 0 8.328 5.553 14.04 18.309 14.04 13.315 0 18.181-6.223 18.182-14.037 0-8.689-5.922-14.041-18.181-14.041" style="fill:#fff;fill-opacity:1"/><path d="m200.358 86.405-9.748-11.018c-2.791-2.921-3.293-3.447-8.482-3.447h-9.945v13.416a1.58 1.58 0 0 1-1.583 1.582h-8.137a1.582 1.582 0 0 1-1.581-1.587V46.928a3.44 3.44 0 0 1 3.429-3.459h29.164c11.175.015 17.329 5 17.329 14.2 0 9.328-7.825 12.456-9.925 13.115l12.336 15.58a.35.35 0 0 1-.275.57h-11.4a1.58 1.58 0 0 1-1.185-.533m-8.516-23.2H172.18V53.17h19.662c6.216 0 7.521 2.728 7.521 5.016s-1.3 5.018-7.521 5.018" fill-rule="evenodd" style="fill:#fff;fill-opacity:1"/><path d="M92.235 45.052v7.584a.61.61 0 0 1-.179.435.617.617 0 0 1-.435.181l-36.859-.019c0 1.744.005 2.462 2.786 2.709l22.166 1.963c8.422.733 8.436 14.158.022 14.926l-21.129 1.85c-2.482.216-3.845.941-3.845 2.77v7.908a1.58 1.58 0 0 1-1.583 1.58h-8.164a1.555 1.555 0 0 1-1.105-.469 1.55 1.55 0 0 1-.441-1.116V74.59c.006-3.851 1.287-6.3 4.36-6.594 3.672-.35 26.285-1.645 26.285-1.645a.845.845 0 0 0-.016-1.553L47.976 63.34c-3.566-.318-4.514-3-4.507-6.687v-9.742a3.47 3.47 0 0 1 3.471-3.442h43.713c.874 0 1.583.709 1.583 1.583m185.768-1.583a3.435 3.435 0 0 0-3.439 3.425v38.457a1.576 1.576 0 0 0 1.571 1.587h8.14a1.58 1.58 0 0 0 1.12-.463c.297-.297.464-.699.465-1.119v-40.3a1.58 1.58 0 0 0-.462-1.121 1.584 1.584 0 0 0-1.119-.466Zm25.367 42.588 3.7-7.46h24.943l1.608 3.242a9.18 9.18 0 0 0 8.222 5.1h6.333a.35.35 0 0 0 .311-.514l-22.041-42.1a1.58 1.58 0 0 0-1.4-.851h-9.877a3.44 3.44 0 0 0-3.052 1.851l-21.518 41.1a.35.35 0 0 0 .311.514h11.044a1.58 1.58 0 0 0 1.419-.881m7.673-15.462 8.566-17.2 8.5 17.2zM257.511 44.351c.267-.54.817-.882 1.419-.882h11.041a.354.354 0 0 1 .3.17.35.35 0 0 1 .011.344l-22.041 42.1a1.58 1.58 0 0 1-1.4.852h-9.878a3.44 3.44 0 0 1-3.049-1.844l-21.525-41.108a.353.353 0 0 1 .311-.514h11.044c.599 0 1.148.338 1.416.874l16.24 32.655zm87.757 100.55-3.1-.049a.61.61 0 0 0-.469.208 36.19 36.19 0 0 1-12.009 8.636 54.95 54.95 0 0 1-22.857 4.757h-.028c-10.928 0-21.171-2.9-28.818-8.131a29.23 29.23 0 0 1-8.534-8.623 18.83 18.83 0 0 1 0-20.535c2.986-4.829 8-8.991 14.52-11.995a54.93 54.93 0 0 1 22.853-4.758h.029c10.931 0 21.175 2.9 28.82 8.131a32.643 32.643 0 0 1 5.573 4.761.61.61 0 0 0 .458.2l1.348-.02 1.805-.026a.61.61 0 0 0 .467-.993 38.83 38.83 0 0 0-14.111-10.6 58.63 58.63 0 0 0-24.384-5.093c-11.631.006-22.6 3.1-30.9 8.765a32.9 32.9 0 0 0-9.576 9.714 22.86 22.86 0 0 0-3.587 12.171.18.18 0 0 0 0 .027 22.87 22.87 0 0 0 3.593 12.173c3.4 5.483 8.977 10.1 16.093 13.385a58.61 58.61 0 0 0 24.385 5.094c11.63-.007 22.6-3.1 30.9-8.766a34.497 34.497 0 0 0 8.011-7.451.61.61 0 0 0-.477-.982m-65.186 1.759c7.064 4.821 16.555 7.449 26.753 7.45 10.198.001 19.687-2.63 26.75-7.45q.6-.41 1.176-.841a.61.61 0 0 0-.356-1.1l-27.145-.348c-12.612-.44-21.234-1.214-30.548-1.855a.61.61 0 0 0-.461 1.049 29.54 29.54 0 0 0 3.831 3.095m54.173-29.469a.61.61 0 0 0-.231-.68l-.439-.306c-7.063-4.82-16.554-7.447-26.75-7.449-10.196-.002-19.689 2.629-26.752 7.449a30.3 30.3 0 0 0-2.681 2.05.61.61 0 0 0 .4 1.074h.032l32.584-1.367 23.264-.341a.613.613 0 0 0 .575-.43m-57.548 15.084 1.23.007h1.288l1.274.008h.1v.1l.064 1.682a56.57 56.57 0 0 0 .114 1.681c.047.574.1 1.141.164 1.685l.175 1.4a.241.241 0 0 0 .233.21l.666.025.963.034.968.035.573.019h.009a.242.242 0 0 0 .242-.272 68.55 68.55 0 0 1-.322-3.705 69.056 69.056 0 0 1 .322-11.906.245.245 0 0 0-.25-.272h-.1l-.472.016-.46.017-.509.018-.49.019-.472.016h-.068l-.6.022a.246.246 0 0 0-.233.211l-.16 1.259-.155 1.544-.114 1.541-.071 1.54v.1h-.1l-1.276.01-.847.007h-.416l-1.252.01-1.242.011h-.107v-.107l.086-1.509a46.65 46.65 0 0 1 .134-1.511c.052-.492.116-1.012.185-1.513l.165-1.1a.243.243 0 0 0-.251-.284l-.493.02-.913.037-.906.036-.469.019-.156.006a.246.246 0 0 0-.231.2 42.03 42.03 0 0 0-.506 3.587 39.894 39.894 0 0 0 0 7.686c.115 1.189.285 2.394.506 3.587a.246.246 0 0 0 .231.2l.626.025.906.036.912.035h.066l.427.016a.244.244 0 0 0 .251-.283l-.184-1.237a46.034 46.034 0 0 1-.404-4.949v-.1h.1zm29.751.274V125.662q0-1.544-.008-3.088a.242.242 0 0 0-.251-.243l-.771.022-1.117.031-1.11.032-.568.017-.2.005a.243.243 0 0 0-.237.239l-.064 4.044-.024 4.371.024 4.371.064 4.044a.244.244 0 0 0 .237.24l.605.018.94.027.945.028.951.027.85.023 1.069.03 1.945.052 1.965.053 1.651.044h.006a.243.243 0 0 0 .244-.234l.028-.673.038-1.015.031-1.017.018-.664a.245.245 0 0 0-.068-.176.24.24 0 0 0-.172-.075l-.535-.008-.963-.014-1.827-.028-.866-.012-.942-.014-.855-.013-.931-.014h-.1v-3.543m42.875-6.362a41.97 41.97 0 0 0-.841-4.613.245.245 0 0 0-.242-.187l-4.47.081-4.621.087q-2.269.044-4.5.09l-4 .084a.24.24 0 0 0-.18.086.241.241 0 0 0-.056.191 69.02 69.02 0 0 1 .44 4.345 69.71 69.71 0 0 1 .163 4.743c0 1.57-.056 3.167-.163 4.744a68.87 68.87 0 0 1-.44 4.345.244.244 0 0 0 .237.276l.295.007.626.015 1.322.029.894.018.436.009 1.043.022a.244.244 0 0 0 .246-.2l.188-1.218.2-1.513a42.62 42.62 0 0 0 .156-1.519l.115-1.52.005-.1h.1l.894.007.936.007h.029l1.821.013 1.868.014.922.006.967.008h.109l-.008.11a43.772 43.772 0 0 1-.346 3.093 55.77 55.77 0 0 1-.249 1.542l-.219 1.13a.24.24 0 0 0 .048.2.248.248 0 0 0 .186.091l.993.018.682.013.739.014 1.432.025 1.168.02a.243.243 0 0 0 .237-.187 41.57 41.57 0 0 0 .841-4.611 39.99 39.99 0 0 0 0-9.815m-5.383 4.713h-7.666v-.1q0-.661-.023-1.323l-.054-1.322-.084-1.321-.115-1.321-.012-.11h.111l.945-.011.875-.009 1.793-.021h.036l.956-.011.9-.009 1.88-.022h.091l.011.09.146 1.347c.046.457.078.9.108 1.346a46.02 46.02 0 0 1 .068 1.347l.027 1.348zm-53.381-2.5q.01-.367.023-.734l.028-.738.034-.733.005-.1h.095l2.147-.042.981-.018 1.2-.022 2.209-.041 1.909-.035a.243.243 0 0 0 .239-.238l.014-.572.023-.905.008-.3.019-.6.018-.536a.245.245 0 0 0-.252-.253l-2.9.089-3.2.1-3.133.1-2.767.094a.243.243 0 0 0-.235.219 74.8 74.8 0 0 0-.3 3.83 76.977 76.977 0 0 0-.111 4.123 76.81 76.81 0 0 0 .111 4.12c.067 1.265.169 2.553.3 3.831a.243.243 0 0 0 .235.219l2.821.1q1.232.043 2.477.082l.711.023 3.257.1 2.96.09h.008a.246.246 0 0 0 .172-.07.252.252 0 0 0 .072-.181l-.019-.6-.028-.974-.024-.974-.012-.638a.245.245 0 0 0-.24-.239l-1.972-.034-2.272-.039-1.014-.018-1.224-.021-.662-.012-1.543-.028h-.1l-.005-.1-.033-.8-.028-.8-.021-.8-.015-.8v-.1h.1l1.973.01 2 .012 2.028.011 1.7.008a.242.242 0 0 0 .245-.245v-2.788a.242.242 0 0 0-.071-.174.247.247 0 0 0-.174-.072l-1.7.012-2.027.014-2 .015-.954.008-1.018.008h-.105v-.105q.007-.368.017-.737m38.046 7.993-1.658-.02-2-.026-.949-.012-1.029-.013-1.954-.025h-.105v-.105c.056-1.211.091-2.417.106-3.585l.011-1.524q0-1.037-.02-2.063a112.89 112.89 0 0 0-.125-3.584l-.215-3.253a.245.245 0 0 0-.249-.225l-.9.022h-.059l-1.159.028-1.211.03-.843.022a.24.24 0 0 0-.174.078.244.244 0 0 0-.064.18l.172 4.206.064 4.568-.064 4.568-.172 4.205a.243.243 0 0 0 .238.256l1.539.038 1.18.029 3.135.075 3.2.075q1.463.034 2.947.066a.245.245 0 0 0 .244-.214l.09-.741.113-1.053.1-1.052.055-.687a.245.245 0 0 0-.241-.264" style="fill:#fff;fill-opacity:1"/></g></svg>