<svg width="194.09" height="194.09" viewBox="0 0 118.957 118.957" xml:space="preserve" xmlns="http://www.w3.org/2000/svg"><circle style="fill:#000;fill-opacity:0;stroke:#fefefe;stroke-width:7.36406;stroke-dasharray:none;stroke-opacity:1" cx="59.479" cy="59.479" r="55.797" fill="none"/><path style="font-weight:300;font-size:117.565px;font-family:'Bookman Old Style';-inkscape-font-specification:'Bookman Old Style Light';fill:#fff;stroke:#fefefe;stroke-width:2.75545" d="M59.421 18.147q2.756 0 4.707 1.952 1.952 1.894 1.952 4.65 0 2.755-1.952 4.707-1.951 1.952-4.707 1.952-2.755 0-4.707-1.952t-1.952-4.707q0-2.756 1.952-4.65 1.952-1.952 4.707-1.952zM44.783 53.681v-4.765q4.765-.574 7.98-1.607 3.271-1.034 7.404-3.272h4.191v46.038q0 2.411.689 3.617.689 1.205 1.894 1.78 1.263.516 4.535.516h2.698v4.822H44.783v-4.822h2.354q3.846 0 5.166-.689 1.32-.689 1.837-1.952.574-1.263.574-5.912V53.68z" aria-label="i"/></svg>