<svg width="531.787" height="357.421" xmlns="http://www.w3.org/2000/svg"><path d="M38.325 223.623v3.019H136.987l7.953.271 7.292.797 6.648 1.306 6.07 1.763 5.478 2.188 4.935 2.595 4.426 2.967 3.918 3.307 3.442 3.595 3.019 3.883 2.577 4.121 2.205 4.341 1.848 4.511 1.492 4.664 1.187 4.765.916 4.867.645 4.9.407 4.935.22 4.918.034 4.867-.119 4.799-.237 4.68-.356 4.562-.407 4.375-.458 4.172-.475 3.95-.475 3.68-.44 3.375-.39 3.053-.289 2.68-.187 2.288-.033 1.883h16.856l2.103-9.056 2.102-9.072 2.103-9.107 2.086-9.123 2.103-9.174 2.086-9.191 2.069-9.208 2.085-9.242 2.07-9.26 2.085-9.275 2.07-9.276 2.068-9.293 2.069-9.31 2.052-9.31 2.069-9.327 2.069-9.327 2.068-9.31 2.052-9.326 2.07-9.31 2.068-9.31 2.069-9.293 2.069-9.293 2.069-9.276 2.086-9.242 2.068-9.242 2.086-9.208 2.086-9.191 2.086-9.174 2.103-9.14 2.103-9.107 2.102-9.072 2.103-9.039-.712 6.834-.594 6.953-.424 7.071-.288 7.173-.102 7.225.102 7.274.288 7.292.492 7.292.73 7.258.966 7.207 1.238 7.14 1.475 7.054 1.78 6.936 2.07 6.783 2.374 6.613 2.696 6.444 3.019 6.224 3.374 5.986 3.748 5.732 4.104 5.443 4.494 5.155 4.9 4.817 5.309 4.476 5.748 4.104 6.173 3.697 6.63 3.29 7.106 2.849 7.58 2.374 8.072 1.882 8.581 1.39 9.107.832 9.632.288h146.28v-2.73H390.17l-4.8-.068-4.9-.238-4.986-.406-5.02-.628-5.036-.865-5.07-1.119-5.037-1.424-5.02-1.73-4.951-2.069-4.901-2.425-4.782-2.832-4.68-3.239-4.563-3.697-4.392-4.154-4.205-4.647-4.02-5.172-3.815-5.715-3.561-6.291-3.307-6.885-3.035-7.512-2.748-8.174-2.425-8.835-2.069-9.53-1.73-10.277-1.339-11.006-.95-11.802-.525-12.6-.085-13.447.373-14.279.848-15.177 1.357-16.076 1.882-17.009h-19.383l-1.984 8.394-2.018 8.496-2.001 8.547-2.018 8.631-2.018 8.683-2.035 8.75-2.035 8.801-2.035 8.835-2.035 8.886-2.052 8.92-2.035 8.954-2.052 8.97-2.052 9.005-2.052 9.022-2.052 9.021-2.052 9.022-2.052 9.038-2.052 9.022-2.051 9.004-2.052 9.005-2.035 8.97-2.052 8.955-2.035 8.92-2.035 8.885-2.035 8.852-2.035 8.784-2.018 8.75-2.018 8.683-2.018 8.632-2.001 8.563-2.001 8.48-2.001 8.41-.153-.339-.136-.661-.101-.967-.085-1.22-.119-1.493-.136-1.73-.186-1.933-.254-2.12-.34-2.289-.424-2.425-.542-2.56-.695-2.663-.831-2.747-1-2.798-1.171-2.849-1.39-2.849-1.612-2.866-1.831-2.815-2.103-2.78-2.374-2.697-2.645-2.629-2.968-2.493-3.273-2.357-3.629-2.221-3.985-2.018-4.358-1.832-4.732-1.61-5.155-1.357-5.596-1.102-6.02-.814-6.478-.492-6.97-.187z" style="fill:#fff;fill-opacity:1;fill-rule:nonzero;stroke:none" transform="translate(-5.427 -3.646)"/><path d="m248.011 81.567.102.153.068.153.068.152.034.136.017.135v.136l-.017.136-.034.135-.051.12-.068.135-.068.119-.101.118-.102.119-.102.102-.119.118-.135.102-.136.102-.136.102-.135.101-.153.102-.153.085-.152.085-.153.085-.17.084-.152.085-.153.068-.135.085-.153.068-.136.067-.135.068-.119.051-.119.068-.373.153-.373.135-.373.153-.373.152-.373.153-.356.136-.373.135-.373.153-.356.136-.374.135-.356.136-.373.136-.356.135-.373.119-.373.136-.356.118-.373.12-.373.118-.373.118-.373.12-.374.1-.373.103-.39.101-.373.102-.39.102-.39.102-.39.084-.39.085-.39.085-.407.068-.407.085-.407.067-1.713.238-2.747.22-3.663.255-4.561.305-5.342.373-6.071.475-6.733.593-7.325.763-7.818.916-8.276 1.136-8.648 1.374-8.954 1.611-9.174 1.916-9.344 2.205-9.429 2.543-9.446 2.917-9.394 3.29-9.26 3.714-9.072 4.154-8.801 4.613-8.462 5.104-8.055 5.63-7.564 6.156-7.02 6.75-6.41 7.325-5.698 7.97-4.935 8.598-4.104 9.276-3.205 9.988-2.222 10.7-1.17 11.464-.05 12.243.135 4.172.475 4.375.848 4.562 1.22 4.731 1.595 4.867 1.984 4.986 2.374 5.07 2.781 5.172 3.188 5.206 3.595 5.257 4.02 5.257 4.46 5.257 4.9 5.223 5.325 5.19 5.8 5.103 6.257 5.003 6.716 4.9 7.19 4.766 7.682 4.596 8.174 4.426 8.665 4.24 9.158 4.001 9.683 3.765 10.208 3.493 10.718 3.222 11.26 2.917 11.803 2.594 12.362 2.239 12.905 1.865 13.482 1.476 14.041 1.068 14.618.627 15.907-.05 15.211-.577 14.482-1.085 13.804-1.56 13.143-2.019 12.464-2.442 11.803-2.831 11.175-3.189 10.548-3.544 9.954-3.85 9.327-4.154 8.767-4.392 8.174-4.63 7.631-4.832 7.072-5.003 6.546-5.155 6.02-5.274 5.511-5.376 5.02-5.443 4.527-5.478 4.07-5.494 3.612-5.477 3.172-5.427 2.73-5.359 2.323-5.256 1.916-5.139 1.527-4.985 1.153-4.816.78-4.596.44-4.358.086-4.104-.22-3.815-.018-2.154-.119-2.544-.27-2.883-.442-3.205-.61-3.51-.831-3.781-1.069-4.036-1.305-4.257-1.594-4.477-1.883-4.63-2.204-4.798-2.544-4.918-2.917-5.02-3.307-5.087-3.713-5.155-4.138-5.172-4.596-5.172-5.07-5.156-5.58-5.12-6.104-5.037-6.631-4.935-7.207-4.816-7.8-4.68-8.412-4.494-9.039-4.308-9.7-4.086-10.378-3.833-11.074-3.561-11.802-3.273-12.55-2.95-13.311-2.595-14.11-2.239.12-.203.118-.187.152-.186.153-.187.153-.17.17-.169.186-.152.186-.153.204-.153.22-.152.22-.153.238-.136.238-.135.254-.136.254-.136.272-.135.271-.119.288-.136.289-.135.288-.119.305-.136.322-.118.323-.136.322-.136.339-.135.339-.12.356-.152.356-.135.356-.136.373-.153.374-.152.373-.153.356-.102.373-.084.356-.102.356-.085.356-.102.373-.085.356-.101.356-.085.357-.085.356-.102.373-.084.356-.085.356-.068.373-.085.356-.068.356-.084.373-.068.374-.068.356-.068.373-.05.373-.052.373-.067.373-.034.39-.051.373-.034.39-.034.373-.034.39-.034.39-.017.407-.017H314.741l3.51.238 4.104.424 4.647.61 5.138.814 5.58 1.017 5.969 1.238 6.325 1.459 6.63 1.679 6.903 1.933 7.105 2.187 7.275 2.442 7.394 2.697 7.461 2.967 7.496 3.256 7.478 3.544 7.428 3.85 7.292 4.137 7.156 4.46 6.953 4.782 6.698 5.105 6.393 5.443 6.071 5.8 5.664 6.139 5.24 6.511 4.766 6.885 4.222 7.258 3.663 7.631 3.053 8.038 2.374 8.445 1.662 8.852.915 9.276.102 9.683-.068 2.51-.254 2.917-.475 3.306-.712 3.663-1.018 3.985-1.305 4.274-1.645 4.545-2.018 4.782-2.425 4.985-2.832 5.155-3.29 5.308-3.782 5.427-4.273 5.494-4.833 5.562-5.393 5.596-5.986 5.58-6.63 5.545-7.276 5.494-7.97 5.393-8.666 5.257-9.428 5.104-10.192 4.935-10.989 4.714-11.837 4.46-12.684 4.188-13.567 3.884-14.499 3.561-15.449 3.188-16.415 2.798-17.416 2.374-18.45 1.916-19.519 1.425-6.8.119-7.309-.085-7.784-.255-8.207-.457-8.581-.679-8.903-.898-9.191-1.137-9.412-1.373-9.598-1.628-9.751-1.883-9.853-2.17-9.886-2.442-9.887-2.747-9.836-3.053-9.734-3.357-9.615-3.697-9.412-4.02-9.19-4.374-8.904-4.732-8.564-5.087-8.207-5.477-7.784-5.85-7.309-6.258-6.783-6.665-6.24-7.088-5.614-7.512-4.969-7.954-4.273-8.394-3.51-8.869-2.73-9.326-1.866-9.82-.983-10.292.017-5.681.406-5.715.798-5.749 1.187-5.782 1.61-5.8 2.036-5.783 2.458-5.782 2.917-5.75 3.358-5.714 3.832-5.647 4.29-5.596 4.8-5.511 5.29-5.41 5.8-5.325 6.326-5.189 6.851-5.053 7.394-4.918 7.936-4.765 8.513-4.579 9.073-4.409 9.666-4.205 10.26-4.002 10.87-3.782 11.497-3.527 12.108-3.29 12.752-3.035 13.397-2.748 14.058-2.458 14.737-2.171 15.415-1.832 16.11-1.526 16.822-1.187z" style="fill:#fff;fill-opacity:1;fill-rule:nonzero;stroke:none" transform="translate(-5.427 -3.646)"/></svg>